<?xml version="1.0" encoding="UTF-8" standalone="no"?><!DOCTYPE svg PUBLIC "-//W3C//DTD SVG 1.1//EN" "http://www.w3.org/Graphics/SVG/1.1/DTD/svg11.dtd"><svg width="100%" height="100%" viewBox="0 0 200 200" version="1.1" xmlns="http://www.w3.org/2000/svg" xmlns:xlink="http://www.w3.org/1999/xlink" xml:space="preserve" xmlns:serif="http://www.serif.com/" style="fill-rule:evenodd;clip-rule:evenodd;stroke-linejoin:round;stroke-miterlimit:2;"><ellipse cx="100" cy="100" rx="85.5" ry="82" style="fill:#ef476f;"/><path d="M100,12.5c48.32,0 87.5,39.18 87.5,87.5c0,48.32 -39.18,87.5 -87.5,87.5c-48.32,0 -87.5,-39.18 -87.5,-87.5c0,-48.32 39.18,-87.5 87.5,-87.5Zm0,14.844c-40.117,0 -72.656,32.539 -72.656,72.656c0,40.117 32.539,72.656 72.656,72.656c40.117,0 72.656,-32.539 72.656,-72.656c0,-40.117 -32.539,-72.656 -72.656,-72.656Zm25.003,38.833c0.004,0.001 0.008,0.004 0.016,0.012l8.793,8.793c0.008,0.008 0.01,0.012 0.011,0.016c0.001,0.004 0.001,0.009 0,0.014c-0.001,0.004 -0.004,0.008 -0.012,0.016l-24.973,24.973l24.973,24.973c0.004,0.003 0.007,0.007 0.01,0.012l0.002,0.004c0.001,0.004 0.001,0.009 0,0.014c-0.001,0.004 -0.004,0.008 -0.012,0.016l-8.793,8.793c-0.008,0.008 -0.012,0.01 -0.016,0.011c-0.004,0.001 -0.009,0.001 -0.014,0c-0.004,-0.001 -0.008,-0.004 -0.016,-0.012l-24.973,-24.973l-24.973,24.973c-0.008,0.008 -0.012,0.01 -0.016,0.012c-0.004,0.001 -0.009,0.001 -0.014,0c-0.004,-0.001 -0.008,-0.004 -0.016,-0.012l-8.793,-8.793c-0.008,-0.008 -0.01,-0.012 -0.011,-0.016c-0.001,-0.004 -0.001,-0.009 0,-0.014c0.001,-0.004 0.004,-0.008 0.012,-0.016l24.973,-24.973l-24.973,-24.973c-0.004,-0.003 -0.007,-0.007 -0.01,-0.012l-0.002,-0.004c-0.001,-0.004 -0.001,-0.009 0,-0.014c0.001,-0.004 0.004,-0.008 0.012,-0.016l8.793,-8.793c0.008,-0.008 0.012,-0.01 0.016,-0.011c0.004,-0.001 0.009,-0.001 0.014,0c0.004,0.001 0.008,0.004 0.016,0.012l24.973,24.973l24.973,-24.973c0.008,-0.008 0.012,-0.01 0.016,-0.012c0.004,-0.001 0.009,-0.001 0.014,0l-0,0Z"/></svg>