<?xml version="1.0" encoding="UTF-8" standalone="no"?><!DOCTYPE svg PUBLIC "-//W3C//DTD SVG 1.1//EN" "http://www.w3.org/Graphics/SVG/1.1/DTD/svg11.dtd"><svg width="100%" height="100%" viewBox="0 0 200 200" version="1.1" xmlns="http://www.w3.org/2000/svg" xmlns:xlink="http://www.w3.org/1999/xlink" xml:space="preserve" xmlns:serif="http://www.serif.com/" style="fill-rule:evenodd;clip-rule:evenodd;stroke-linejoin:round;stroke-miterlimit:2;"><path d="M100,30.5l78.5,139l-157,0l78.5,-139Z" style="fill:#ffd166;"/><path d="M90.625,140.625c0,5.143 4.232,9.375 9.375,9.375c5.143,0 9.375,-4.232 9.375,-9.375c0,-5.143 -4.232,-9.375 -9.375,-9.375c-5.143,0 -9.375,4.232 -9.375,9.375Zm3.125,-59.375l0,35.938c0,0.859 0.703,1.562 1.562,1.562l9.375,0c0.859,0 1.562,-0.703 1.562,-1.562l0,-35.938c0,-0.859 -0.703,-1.562 -1.562,-1.562l-9.375,0c-0.859,0 -1.562,0.703 -1.562,1.562Zm92.91,85.938l-81.25,-140.625c-1.211,-2.09 -3.301,-3.125 -5.41,-3.125c-2.109,0 -4.219,1.035 -5.41,3.125l-81.25,140.625c-2.402,4.18 0.605,9.375 5.41,9.375l162.5,0c4.805,0 7.812,-5.195 5.41,-9.375Zm-153.027,-5.449l66.367,-114.883l66.367,114.883l-132.734,0Z" style="fill-rule:nonzero;"/></svg>